<?xml version="1.0" standalone="no"?>
<!DOCTYPE svg PUBLIC "-//W3C//DTD SVG 20010904//EN"
 "http://www.w3.org/TR/2001/REC-SVG-20010904/DTD/svg10.dtd">
<svg version="1.0" xmlns="http://www.w3.org/2000/svg"
 width="1920.000000pt" height="1080.000000pt" viewBox="0 0 1920.000000 1080.000000"
 preserveAspectRatio="xMidYMid meet">

<g transform="translate(0.000000,1080.000000) scale(0.100000,-0.100000)"
fill="#000000" stroke="none">
<path d="M0 5400 l0 -5400 9600 0 9600 0 0 5400 0 5400 -9600 0 -9600 0 0
-5400z m8659 3915 c24 -12 41 -33 41 -51 0 -12 -51 -2 -56 11 -8 19 -58 20
-73 2 -15 -19 5 -42 50 -56 67 -21 94 -64 69 -111 -13 -24 -74 -44 -108 -35
-31 8 -72 43 -72 62 0 20 44 15 58 -7 21 -33 82 -21 82 17 0 7 -24 24 -52 37
-65 28 -80 46 -76 88 5 53 75 75 137 43z m391 -5 c0 -18 -7 -20 -60 -20 l-60
0 0 -30 c0 -29 1 -30 50 -30 43 0 50 -3 50 -20 0 -17 -7 -20 -50 -20 l-50 0 0
-35 0 -35 60 0 c53 0 60 -2 60 -20 0 -18 -7 -20 -85 -20 l-85 0 0 125 0 125
85 0 c78 0 85 -2 85 -20z m275 -66 c16 -47 33 -88 37 -90 3 -2 19 35 35 83 30
88 30 88 66 91 l37 3 0 -125 0 -126 -25 0 c-25 0 -25 1 -26 93 l0 92 -33 -90
c-45 -122 -62 -125 -99 -18 -40 114 -45 116 -39 14 l5 -91 -27 0 -26 0 0 125
0 125 33 0 c32 0 33 -2 62 -86z m531 -34 c24 -63 44 -118 44 -122 0 -5 -11 -8
-25 -8 -18 0 -26 7 -31 25 -6 22 -11 25 -55 25 -44 0 -49 -3 -55 -25 -5 -19
-13 -25 -34 -25 l-28 0 47 125 c42 116 48 125 70 123 21 -3 30 -19 67 -118z
m320 39 l49 -81 3 81 c3 79 4 81 27 81 l25 0 0 -125 0 -125 -24 0 c-20 0 -34
16 -75 82 l-51 83 0 -83 c0 -81 0 -82 -25 -82 l-25 0 0 125 c0 125 0 125 24
125 18 0 33 -16 72 -81z m442 29 c11 -29 32 -84 46 -122 14 -37 26 -70 26 -72
0 -2 -11 -4 -25 -4 -18 0 -26 7 -31 25 -6 22 -11 25 -55 25 -44 0 -51 -3 -59
-25 -7 -17 -17 -25 -35 -25 l-24 0 30 83 c17 45 38 101 46 125 12 33 20 42 38
42 19 0 27 -10 43 -52z m1172 -578 c0 -115 4 -210 8 -210 5 0 45 43 88 95 l79
95 88 0 88 0 -100 -114 -100 -114 110 -161 110 -161 -84 0 -83 0 -73 111 -72
112 -29 -28 c-29 -27 -30 -33 -30 -112 l0 -83 -70 0 -70 0 0 390 0 390 70 0
70 0 0 -210z m-1835 156 c74 -31 134 -111 135 -179 l0 -28 -72 3 c-71 3 -72 3
-80 35 -12 47 -55 73 -121 73 -89 0 -140 -58 -107 -121 13 -23 66 -51 153 -79
98 -32 179 -88 206 -142 24 -51 28 -123 7 -171 -17 -41 -73 -91 -123 -108 -54
-19 -197 -17 -258 4 -93 31 -164 114 -165 190 l0 27 75 0 c71 0 75 -1 75 -23
0 -30 25 -64 60 -82 59 -31 178 -12 194 30 24 64 -8 110 -100 144 -32 12 -78
28 -102 37 -73 27 -135 75 -159 124 -57 112 -2 225 134 276 50 19 193 13 248
-10z m405 -106 l0 -70 50 0 50 0 0 -55 0 -55 -51 0 -50 0 3 -155 c3 -171 5
-175 66 -175 l32 0 0 -54 0 -54 -40 -7 c-54 -9 -114 2 -146 28 -46 36 -54 71
-54 252 l0 165 -40 0 -40 0 0 55 0 55 40 0 40 0 0 70 0 70 70 0 70 0 0 -70z
m542 -96 c76 -53 82 -73 89 -294 3 -107 9 -203 13 -212 7 -16 1 -18 -67 -18
-72 0 -75 1 -81 25 l-7 26 -33 -26 c-101 -77 -273 -14 -291 108 -6 38 -3 55
16 94 33 66 81 91 204 105 l95 11 0 31 c0 17 -7 42 -16 54 -29 42 -144 23
-144 -25 0 -10 -18 -13 -70 -13 -64 0 -70 2 -70 20 0 12 6 33 14 48 36 69 116
104 229 99 67 -3 84 -8 119 -33z m545 12 c18 -9 42 -26 54 -39 27 -28 58 -95
59 -124 0 -22 -4 -23 -65 -23 -61 0 -65 2 -71 25 -13 53 -92 83 -146 54 -31
-17 -48 -71 -48 -154 0 -121 28 -165 105 -165 48 0 70 13 85 50 12 29 14 30
78 30 l65 0 -6 -36 c-18 -111 -150 -184 -280 -155 -77 17 -129 57 -163 127
-25 51 -28 70 -28 149 -1 152 53 237 174 276 39 13 151 4 187 -15z m-1595
-2305 c-2 -20 1 -23 23 -19 21 4 35 -5 82 -56 75 -81 106 -150 111 -245 3 -41
-1 -99 -8 -128 l-11 -53 -57 7 c-31 5 -154 8 -272 7 -175 0 -238 -5 -337 -22
-67 -12 -129 -25 -136 -28 -8 -3 -17 2 -20 10 -14 36 -19 195 -8 266 13 84 59
189 96 218 14 11 69 28 127 40 140 29 145 29 288 28 l125 -1 -3 -24z m-786
-184 c-27 -80 -38 -173 -34 -295 l3 -120 -49 -21 c-27 -11 -83 -40 -123 -63
-61 -35 -80 -52 -108 -98 -107 -176 -151 -501 -109 -801 20 -144 65 -321 98
-386 37 -74 114 -163 193 -222 240 -180 577 -255 992 -221 110 9 163 10 176 3
17 -10 14 -13 -21 -31 -214 -107 -539 -108 -859 -1 -266 88 -426 224 -508 431
-57 143 -114 367 -143 563 -18 125 -31 445 -17 445 5 0 18 6 29 14 17 13 20
31 24 178 l5 163 38 79 c49 103 109 186 194 267 64 62 221 174 230 165 3 -2
-2 -24 -11 -49z m-511 -547 l0 -215 -122 -3 -123 -3 0 214 c0 118 3 217 7 221
4 3 59 5 122 4 l116 -3 0 -215z m1308 7 c37 -24 36 -62 0 -80 -44 -22 -142
-37 -343 -51 -196 -15 -259 -30 -323 -79 -204 -156 -248 -395 -138 -750 50
-160 53 -247 10 -247 -52 0 -120 65 -159 152 -10 24 -31 102 -46 173 -22 106
-27 158 -27 280 -2 239 28 342 129 443 71 71 147 111 271 142 126 32 193 38
403 37 169 -2 200 -4 223 -20z m197 -17 c24 -24 24 -29 4 -58 -17 -24 -53 -29
-72 -10 -17 17 -15 54 4 72 21 21 40 20 64 -4z m-3939 -497 c34 -29 124 -205
108 -211 -15 -6 -10 -39 13 -87 21 -44 38 -58 38 -32 0 6 5 4 11 -6 8 -13 8
-22 1 -29 -13 -13 4 -52 17 -43 9 5 73 -136 86 -186 9 -37 -20 -106 -38 -90
-17 13 -27 5 -20 -17 3 -10 1 -13 -4 -7 -4 6 -20 16 -35 22 -19 9 -29 22 -34
48 -8 43 -24 46 -24 5 0 -19 9 -40 25 -55 13 -14 20 -25 15 -25 -6 0 -20 10
-31 21 -31 31 -22 105 15 132 33 24 25 37 -18 30 -32 -5 -34 -3 -60 48 -33 66
-33 94 -1 115 36 23 31 34 -14 34 -50 0 -69 23 -112 133 -65 168 -31 278 62
200z m431 -248 c100 -206 146 -409 118 -524 -15 -63 -47 -90 -143 -121 -38
-12 -65 -26 -60 -30 4 -4 41 -15 81 -25 42 -10 72 -22 72 -30 0 -7 -9 -11 -22
-8 -24 4 -88 -30 -88 -47 0 -12 12 -13 43 -1 21 8 24 7 20 -9 -6 -22 -111 -70
-206 -95 -64 -16 -86 -29 -73 -42 12 -12 164 29 234 63 77 37 147 44 147 14 0
-20 -176 -162 -250 -202 -45 -24 -72 -32 -107 -31 -27 0 -48 -4 -48 -9 0 -7
-18 -9 -47 -5 -83 9 -114 80 -72 164 21 40 39 56 128 113 58 36 106 71 109 78
6 20 -30 14 -73 -13 -53 -33 -58 -31 -34 10 11 19 19 44 17 57 -2 19 -13 9
-59 -57 -78 -110 -117 -145 -168 -152 -99 -13 -97 78 5 197 24 28 44 54 44 57
0 2 -13 2 -30 -2 -38 -8 -38 5 0 27 17 9 30 24 30 32 0 18 36 40 50 31 6 -4 5
-13 -2 -25 -22 -35 0 -33 56 4 57 38 97 56 123 56 13 0 14 -8 9 -40 -3 -22 -2
-40 3 -40 5 0 30 25 57 56 53 63 92 84 156 84 43 0 78 13 66 25 -4 4 -21 14
-40 23 -46 24 -78 75 -78 127 0 44 16 67 58 80 31 9 22 31 -13 28 -15 -1 -25
1 -21 4 7 8 -13 33 -26 33 -6 0 -8 -9 -5 -20 8 -29 -12 -24 -23 6 -10 26 -13
61 -3 37 8 -20 23 -15 23 7 0 11 -7 23 -15 26 -25 10 -17 31 15 43 36 12 40
31 6 31 -16 0 -23 5 -22 16 0 9 -5 19 -13 22 -10 3 -12 0 -8 -12 10 -24 -13
-15 -31 12 -13 21 -13 22 3 16 15 -6 17 -4 11 17 -4 13 -10 53 -12 89 l-6 65
23 -35 c12 -19 53 -98 91 -175z m-135 128 c-2 -16 -4 -5 -4 22 0 28 2 40 4 28
2 -13 2 -35 0 -50z m-539 -211 c21 -21 88 -107 150 -192 89 -122 112 -160 112
-187 0 -42 -32 -77 -63 -67 -67 19 -102 67 -93 124 6 38 5 39 -25 42 -19 2
-38 12 -47 26 -13 20 -13 22 2 16 20 -8 22 19 2 38 -10 10 -11 20 -4 31 6 12
5 22 -6 32 -19 19 -40 19 -32 0 10 -27 -31 -17 -57 14 -29 34 -43 110 -27 141
16 30 46 24 88 -18z m-188 -289 c25 -18 101 -78 177 -142 27 -22 38 -38 32
-42 -7 -4 -8 -12 -4 -18 5 -9 10 -9 20 -1 9 7 19 5 36 -9 l24 -20 -25 6 c-23
6 -24 5 -11 -11 8 -9 23 -15 35 -14 16 2 22 -3 24 -21 6 -36 -11 -46 -49 -27
-38 19 -45 16 -28 -16 12 -23 12 -23 -9 -4 -16 14 -20 26 -15 44 5 21 3 24
-11 19 -10 -4 -16 -1 -16 8 0 8 -5 15 -11 15 -6 0 -8 -9 -4 -20 9 -28 -22 -26
-59 3 -19 16 -31 36 -35 63 -6 37 -8 39 -38 36 -60 -6 -108 77 -83 142 11 31
17 32 50 9z m2278 -38 c29 -9 52 -19 52 -24 0 -16 -106 -60 -160 -67 -126 -16
-247 -89 -324 -198 -57 -80 -73 -121 -91 -230 -8 -49 -22 -111 -31 -138 -15
-45 -64 -108 -85 -108 -21 0 -5 210 26 335 17 64 72 187 99 220 17 20 17 20 7
-2 -6 -12 -11 -34 -11 -50 1 -24 6 -17 37 40 38 72 58 91 158 152 52 33 56 37
27 31 -18 -3 -57 -22 -88 -41 -31 -20 -53 -32 -50 -27 13 21 119 86 168 103
66 23 195 25 266 4z m1312 -57 c38 -41 19 -128 -34 -147 -33 -13 -73 7 -90 44
-15 30 -15 38 -2 69 24 58 87 75 126 34z m1912 -281 c26 -32 57 -76 68 -97 54
-107 137 -377 120 -394 -16 -16 -13 -59 4 -53 11 4 18 -7 25 -46 17 -84 31
-189 30 -232 l-1 -40 -8 40 c-5 22 -14 86 -21 143 -15 133 -34 136 -27 5 6
-97 6 -98 -7 -40 -12 58 -20 75 -30 65 -3 -3 4 -61 15 -129 11 -68 20 -127 20
-131 0 -5 4 -8 9 -8 6 0 11 19 13 43 4 44 5 37 24 -151 3 -29 10 -50 15 -47 5
4 9 -5 9 -19 0 -14 -4 -26 -9 -26 -18 0 -22 -34 -5 -47 15 -11 16 -26 10 -130
-4 -65 -16 -181 -27 -258 -19 -132 -74 -404 -84 -414 -3 -2 -15 5 -28 16 -40
37 -106 64 -188 76 l-81 11 7 31 c17 81 55 364 64 478 43 508 -39 987 -218
1282 -59 97 -42 93 21 -5 42 -65 54 -77 56 -60 4 24 -57 121 -90 144 -18 13
-17 15 19 42 21 15 58 43 82 61 l44 32 60 -42 c33 -23 82 -68 109 -100z
m-2647 21 c26 -20 27 -24 23 -92 -3 -45 -17 -104 -38 -161 -51 -141 -87 -272
-110 -407 -37 -206 -39 -607 -5 -913 l5 -40 -11 42 c-5 23 -17 47 -26 55 -14
11 -16 10 -10 -12 11 -48 47 -273 44 -277 -2 -2 -9 22 -16 52 -12 55 -32 75
-30 33 1 -43 25 -139 34 -139 6 0 13 10 17 23 l6 23 1 -22 c1 -13 6 -23 12
-23 7 0 9 18 5 53 -4 41 -3 44 3 17 5 -19 11 -49 14 -66 l6 -31 -65 -7 c-78
-8 -148 -33 -198 -71 -42 -32 -37 -40 -70 115 -122 575 -107 1127 45 1566 46
133 67 178 105 223 21 25 29 29 40 20 11 -9 14 -7 14 9 0 12 9 26 20 32 16 9
18 8 14 -5 -5 -12 0 -14 27 -9 19 4 38 13 44 20 15 21 69 17 100 -8z m-437
-320 c-3 -7 -11 -13 -19 -13 -21 0 -100 -56 -93 -66 3 -5 0 -9 -5 -9 -6 0 -11
6 -11 13 -1 7 -6 5 -14 -5 -14 -19 -32 -25 -21 -8 3 6 -1 10 -9 10 -9 0 -16
-5 -16 -11 0 -15 -135 -8 -151 8 -20 20 0 51 44 67 53 19 79 23 200 25 75 1
98 -2 95 -11z m740 -154 c208 -139 543 -222 922 -227 l155 -2 78 -48 c81 -51
146 -117 183 -188 l23 -41 -22 -42 c-29 -55 -35 -166 -12 -235 9 -27 32 -70
50 -94 l34 -45 -14 -50 c-17 -57 -69 -138 -102 -160 -21 -13 -23 -12 -28 15
-23 104 -47 163 -85 205 -39 45 -40 48 -45 134 -3 58 -1 78 4 59 5 -16 9 -46
10 -65 2 -50 37 -124 56 -117 8 4 17 2 20 -4 13 -20 24 3 13 27 -11 23 -13 24
-24 9 -14 -18 -19 -13 -27 30 -4 17 -4 24 -1 18 3 -7 10 -13 16 -13 7 0 9 24
4 72 -8 90 -26 114 -27 37 l-1 -54 -9 50 c-13 76 -25 110 -37 108 -6 -2 -21
15 -33 36 -29 53 -83 81 -167 88 -123 10 -211 -32 -244 -116 -5 -14 -13 -79
-17 -143 -7 -116 -7 -117 -44 -157 -46 -51 -58 -79 -91 -221 -29 -127 -64
-211 -104 -252 l-26 -28 -243 0 c-140 0 -242 4 -239 9 3 5 -10 12 -29 15 -39
8 -67 50 -80 119 -8 44 -22 49 -27 10 -4 -34 -36 185 -42 282 -2 39 -2 54 1
35 2 -19 9 -39 14 -45 5 -5 9 52 9 150 0 88 3 198 6 245 5 62 4 82 -4 75 -10
-9 -20 -93 -36 -300 -2 -27 -2 63 -1 200 3 237 15 364 45 500 12 55 63 117
115 141 42 19 44 18 103 -22z m-858 -268 c0 -28 -53 -78 -108 -102 -24 -10
-70 -16 -132 -17 l-95 -2 -3 42 c-3 36 1 44 23 59 50 33 100 43 208 44 106 0
107 0 107 -24z m3407 -93 c-3 -10 -5 -4 -5 12 0 17 2 24 5 18 2 -7 2 -21 0
-30z m-4584 3 c21 -16 19 -18 -50 -40 -53 -18 -78 -36 -48 -36 8 0 43 9 76 20
59 20 83 20 63 0 -15 -15 -252 -59 -360 -66 -112 -7 -187 5 -229 38 -36 28
-31 43 5 17 16 -13 33 -19 37 -16 4 4 -3 14 -15 23 -31 22 -28 38 6 29 101
-26 161 -29 245 -10 45 9 89 20 97 22 8 3 34 7 58 9 23 2 50 8 60 13 23 14 33
13 55 -3z m4634 -123 c-2 -16 -4 -5 -4 22 0 28 2 40 4 28 2 -13 2 -35 0 -50z
m-4477 -301 l12 -104 -32 -29 c-18 -17 -29 -33 -26 -37 4 -3 10 -2 14 4 12 18
42 25 42 9 0 -7 -9 -17 -20 -20 -29 -9 -25 -28 5 -21 18 5 25 2 25 -9 0 -57
-352 -116 -514 -86 -68 13 -91 30 -117 86 -24 52 -27 186 -4 205 10 8 62 14
147 16 180 6 297 27 378 68 36 19 68 31 72 27 3 -3 12 -53 18 -109z m1000 6
c0 -25 -40 -78 -77 -102 -59 -39 -148 -66 -220 -66 l-63 0 0 33 c0 82 73 119
280 140 70 7 80 7 80 -5z m457 -415 c-3 -10 -5 -4 -5 12 0 17 2 24 5 18 2 -7
2 -21 0 -30z m10 -70 c-3 -10 -5 -4 -5 12 0 17 2 24 5 18 2 -7 2 -21 0 -30z
m-1913 -48 c126 -19 303 -19 381 0 75 18 75 18 75 1 0 -29 -218 -41 -397 -22
-113 12 -110 -8 3 -24 86 -12 327 -9 372 5 31 10 29 -12 -3 -27 -31 -14 -32
-28 -4 -28 19 0 21 -4 14 -37 -4 -21 -14 -60 -24 -87 -16 -47 -20 -51 -66 -64
-28 -7 -102 -14 -165 -15 -96 -2 -127 2 -189 21 -65 21 -83 32 -137 86 -53 54
-63 69 -69 110 -5 29 -3 57 4 72 9 20 17 24 58 24 27 0 93 -7 147 -15z m2171
-82 l26 -23 -30 0 c-37 0 -38 3 -46 71 l-6 54 15 -40 c8 -22 27 -50 41 -62z
m1089 -50 c41 -59 51 -127 31 -195 -11 -39 -22 -59 -36 -63 -10 -4 -17 -11
-13 -16 3 -6 0 -16 -6 -24 -17 -20 -182 -21 -198 -2 -17 20 -35 153 -30 219 7
90 42 115 170 117 55 1 58 0 82 -36z m-549 -189 c56 -31 72 -52 79 -109 4 -27
10 -66 13 -85 l6 -35 -22 19 c-14 13 -21 31 -21 57 0 46 -15 87 -42 117 -36
38 -54 26 -19 -13 19 -22 31 -47 31 -65 0 -15 3 -36 7 -45 5 -15 3 -16 -15 -6
-11 6 -23 20 -27 31 -4 12 -14 19 -28 19 -12 -1 -56 14 -97 34 -101 48 -215
77 -328 84 -176 11 -71 23 178 21 229 -3 248 -4 285 -24z m-2600 -65 c70 -14
114 -18 154 -13 l56 6 -25 -19 c-49 -40 -115 -66 -177 -71 -61 -5 -62 -4 -81
27 -21 35 -35 31 -25 -7 5 -22 4 -23 -17 -12 -18 9 -21 18 -18 46 2 21 0 33
-6 31 -6 -2 -12 -18 -14 -35 -5 -48 -32 -42 -32 6 0 30 5 41 23 50 32 15 52
14 162 -9z m3148 -514 c40 -20 83 -44 96 -54 23 -17 20 -17 -50 1 -47 12 -99
18 -142 16 -72 -3 -76 -1 -91 50 -7 21 -5 22 54 22 50 0 75 -7 133 -35z m134
29 c-3 -3 -12 -4 -19 -1 -8 3 -5 6 6 6 11 1 17 -2 13 -5z"/>
<path d="M9772 9221 c-16 -52 -16 -51 19 -51 32 0 33 2 8 68 -11 30 -14 28
-27 -17z"/>
<path d="M10557 9215 l-16 -45 35 0 c32 0 35 2 28 23 -13 41 -23 67 -28 67 -2
0 -11 -20 -19 -45z"/>
<path d="M10715 8368 c-32 -17 -45 -39 -45 -74 0 -61 73 -84 138 -44 30 18 32
23 32 75 l0 55 -52 0 c-29 0 -62 -6 -73 -12z"/>
<path d="M9790 6350 c0 -5 7 -10 15 -10 8 0 15 5 15 10 0 6 -7 10 -15 10 -8 0
-15 -4 -15 -10z"/>
<path d="M9680 5930 c0 -5 9 -10 20 -10 11 0 20 5 20 10 0 6 -9 10 -20 10 -11
0 -20 -4 -20 -10z"/>
<path d="M9760 5925 c0 -8 6 -15 14 -15 22 0 28 17 10 24 -22 9 -24 8 -24 -9z"/>
<path d="M9403 5912 c-89 -21 -107 -36 -33 -29 187 19 266 30 275 38 16 15
-164 8 -242 -9z"/>
<path d="M9245 5870 c-4 -6 5 -10 19 -10 14 0 26 5 26 10 0 6 -9 10 -19 10
-11 0 -23 -4 -26 -10z"/>
<path d="M8944 6111 c-53 -39 -97 -87 -92 -101 3 -11 139 101 146 121 6 17
-15 9 -54 -20z"/>
<path d="M8805 5979 c-10 -15 1 -23 20 -15 9 3 13 10 10 16 -8 13 -22 13 -30
-1z"/>
<path d="M8770 5941 c0 -6 5 -13 10 -16 6 -3 10 1 10 9 0 9 -4 16 -10 16 -5 0
-10 -4 -10 -9z"/>
<path d="M8382 5804 c-57 -40 -44 -122 22 -144 31 -10 41 -9 69 7 40 24 54 61
38 101 -20 49 -85 67 -129 36z"/>
<path d="M8374 5577 c-57 -49 -20 -137 58 -137 88 0 123 106 47 145 -40 21
-74 18 -105 -8z"/>
<path d="M9125 5550 c-3 -5 -15 -10 -25 -10 -24 0 -135 -105 -126 -119 10 -15
23 -6 93 59 34 31 67 54 76 52 12 -2 15 1 11 12 -7 18 -20 21 -29 6z"/>
<path d="M8947 5384 c-13 -13 -7 -24 14 -24 11 0 19 5 17 12 -5 14 -22 21 -31
12z"/>
<path d="M8925 5331 c-7 -12 12 -24 25 -16 11 7 4 25 -10 25 -5 0 -11 -4 -15
-9z"/>
<path d="M6048 5104 c-5 -4 -8 -18 -8 -32 0 -36 50 -190 66 -203 19 -16 18
-11 -15 105 -17 55 -31 109 -33 119 -2 11 -6 15 -10 11z"/>
<path d="M6120 4830 c0 -13 28 -25 38 -16 3 4 0 11 -8 16 -20 13 -30 12 -30 0z"/>
<path d="M6187 4734 c-12 -12 -7 -68 7 -86 19 -25 40 -24 26 1 -5 11 -13 36
-18 56 -4 20 -11 33 -15 29z"/>
<path d="M6240 4614 c0 -8 5 -12 10 -9 6 3 10 10 10 16 0 5 -4 9 -10 9 -5 0
-10 -7 -10 -16z"/>
<path d="M6260 4540 c0 -5 4 -10 9 -10 6 0 13 5 16 10 3 6 -1 10 -9 10 -9 0
-16 -4 -16 -10z"/>
<path d="M6537 4613 c-13 -12 -7 -60 8 -73 8 -7 15 -22 15 -33 0 -16 3 -18 12
-9 9 9 9 15 0 24 -7 7 -12 26 -12 43 0 33 -13 59 -23 48z"/>
<path d="M6580 4480 c0 -5 7 -10 15 -10 8 0 15 5 15 10 0 6 -7 10 -15 10 -8 0
-15 -4 -15 -10z"/>
<path d="M6580 4380 c0 -5 5 -10 10 -10 6 0 10 5 10 10 0 6 -4 10 -10 10 -5 0
-10 -4 -10 -10z"/>
<path d="M6485 4350 c-43 -33 -55 -48 -55 -69 0 -10 12 -4 33 16 17 16 50 42
72 57 36 24 37 26 15 26 -14 0 -43 -14 -65 -30z"/>
<path d="M6264 4301 c-40 -18 -65 -41 -46 -41 5 0 29 7 53 15 33 12 44 13 50
3 6 -9 10 -8 14 4 8 20 -1 38 -18 38 -7 0 -31 -9 -53 -19z"/>
<path d="M6400 4260 c0 -5 5 -10 10 -10 6 0 10 5 10 10 0 6 -4 10 -10 10 -5 0
-10 -4 -10 -10z"/>
<path d="M6310 4251 c0 -6 5 -13 10 -16 6 -3 10 1 10 9 0 9 -4 16 -10 16 -5 0
-10 -4 -10 -9z"/>
<path d="M6055 4131 c-6 -11 9 -23 19 -14 9 9 7 23 -3 23 -6 0 -12 -4 -16 -9z"/>
<path d="M6190 4125 c0 -8 5 -15 10 -15 6 0 10 7 10 15 0 8 -4 15 -10 15 -5 0
-10 -7 -10 -15z"/>
<path d="M6038 4083 c-23 -28 -28 -49 -14 -69 22 -29 91 -13 135 30 24 24 31
36 20 36 -9 0 -24 -9 -34 -20 -20 -22 -91 -47 -102 -36 -4 4 -2 21 5 38 14 38
11 45 -10 21z"/>
<path d="M6124 4089 c-3 -6 -17 -8 -30 -5 -18 5 -24 2 -24 -9 0 -9 7 -18 15
-21 17 -7 65 21 65 36 0 13 -17 13 -26 -1z"/>
<path d="M6250 4010 c0 -5 6 -10 14 -10 8 0 18 5 21 10 3 6 -3 10 -14 10 -12
0 -21 -4 -21 -10z"/>
<path d="M6196 3967 c-54 -54 -35 -169 29 -175 29 -2 29 -2 10 12 -46 34 -47
38 -43 88 4 32 13 57 28 73 30 32 7 33 -24 2z"/>
<path d="M5805 4723 c13 -55 40 -59 29 -5 -4 19 -13 32 -21 32 -11 0 -13 -7
-8 -27z"/>
<path d="M5980 4620 c0 -15 59 -116 75 -130 27 -22 17 12 -22 78 -34 58 -53
76 -53 52z"/>
<path d="M5926 4542 c-3 -6 -1 -14 5 -17 15 -10 25 3 12 16 -7 7 -13 7 -17 1z"/>
<path d="M5960 4530 c0 -5 5 -10 10 -10 6 0 10 5 10 10 0 6 -4 10 -10 10 -5 0
-10 -4 -10 -10z"/>
<path d="M5990 4447 c0 -23 35 -66 45 -56 6 7 -28 78 -37 79 -5 0 -8 -11 -8
-23z"/>
<path d="M6072 4461 c4 -13 18 -16 19 -4 0 4 -5 9 -11 12 -7 2 -11 -2 -8 -8z"/>
<path d="M6050 4374 c0 -8 5 -12 10 -9 6 3 10 10 10 16 0 5 -4 9 -10 9 -5 0
-10 -7 -10 -16z"/>
<path d="M6085 4371 c-6 -11 9 -23 19 -14 9 9 7 23 -3 23 -6 0 -12 -4 -16 -9z"/>
<path d="M5650 4454 c0 -27 19 -52 52 -68 17 -9 33 -14 36 -12 7 8 -9 27 -18
21 -10 -6 -50 42 -50 61 0 8 -4 14 -10 14 -5 0 -10 -7 -10 -16z"/>
<path d="M5776 4308 c15 -28 38 -48 52 -48 11 0 7 9 -13 30 -29 30 -52 41 -39
18z"/>
<path d="M5965 4220 c-3 -5 1 -10 9 -10 9 0 16 5 16 10 0 6 -4 10 -9 10 -6 0
-13 -4 -16 -10z"/>
<path d="M7710 4435 c0 -8 7 -15 15 -15 8 0 15 7 15 15 0 8 -7 15 -15 15 -8 0
-15 -7 -15 -15z"/>
<path d="M7581 4336 c-33 -35 -10 -40 30 -6 30 25 31 29 13 30 -11 0 -31 -11
-43 -24z"/>
<path d="M7533 4285 c-3 -9 -3 -18 0 -21 9 -9 27 6 27 22 0 19 -19 18 -27 -1z"/>
<path d="M7427 4163 c-4 -3 -7 -13 -7 -21 0 -12 3 -12 15 -2 8 7 15 16 15 21
0 11 -14 12 -23 2z"/>
<path d="M7346 3773 c-12 -12 -6 -33 9 -33 8 0 15 6 15 14 0 17 -14 28 -24 19z"/>
<path d="M11049 4222 c13 -25 91 -95 98 -88 9 9 -24 53 -60 80 -40 31 -51 33
-38 8z"/>
<path d="M11000 4212 c0 -11 57 -62 69 -62 19 0 12 22 -8 27 -11 3 -21 13 -24
24 -5 18 -37 28 -37 11z"/>
<path d="M10970 4172 c0 -15 38 -44 51 -40 9 3 6 11 -9 26 -22 22 -42 29 -42
14z"/>
<path d="M10941 4149 c7 -14 14 -18 21 -11 13 13 2 32 -18 32 -12 0 -13 -4 -3
-21z"/>
<path d="M10900 4150 c0 -8 16 -33 35 -55 25 -29 34 -35 35 -22 0 9 -16 34
-35 55 -21 22 -35 31 -35 22z"/>
<path d="M10972 4111 c4 -13 18 -16 19 -4 0 4 -5 9 -11 12 -7 2 -11 -2 -8 -8z"/>
<path d="M11053 4098 c-22 -28 -22 -37 -2 -62 22 -28 64 -35 100 -16 24 13 25
52 1 73 -22 20 -85 22 -99 5z"/>
<path d="M10972 4034 c1 -9 9 -19 16 -22 9 -3 13 2 10 14 -1 9 -9 19 -16 22
-9 3 -13 -2 -10 -14z"/>
<path d="M11240 3980 c0 -5 4 -10 9 -10 6 0 13 5 16 10 3 6 -1 10 -9 10 -9 0
-16 -4 -16 -10z"/>
<path d="M10982 3924 c1 -9 9 -19 16 -22 9 -3 13 2 10 14 -1 9 -9 19 -16 22
-9 3 -13 -2 -10 -14z"/>
<path d="M11132 3874 c-63 -44 19 -121 89 -84 44 24 10 100 -46 100 -11 0 -31
-7 -43 -16z"/>
<path d="M11175 3654 c-22 -22 -15 -53 17 -77 22 -17 33 -18 60 -11 65 19 42
104 -28 104 -18 0 -40 -7 -49 -16z"/>
<path d="M11340 3531 c0 -11 4 -22 9 -25 11 -7 20 14 13 32 -7 19 -22 14 -22
-7z"/>
<path d="M11207 3412 c-10 -10 -17 -26 -17 -35 0 -17 45 -57 66 -57 22 0 63
22 68 37 6 16 -10 53 -28 65 -21 14 -73 8 -89 -10z"/>
<path d="M11216 3234 c-20 -19 -20 -34 -1 -61 26 -38 92 -37 117 1 34 50 -72
105 -116 60z"/>
<path d="M11390 3150 c0 -11 5 -20 10 -20 6 0 10 9 10 20 0 11 -4 20 -10 20
-5 0 -10 -9 -10 -20z"/>
<path d="M11239 3001 c-20 -16 -22 -23 -14 -47 21 -60 117 -58 123 3 5 55 -62
83 -109 44z"/>
<path d="M11420 2905 c0 -14 5 -25 10 -25 6 0 10 11 10 25 0 14 -4 25 -10 25
-5 0 -10 -11 -10 -25z"/>
<path d="M11224 2790 c-54 -22 -26 -92 38 -98 65 -6 90 49 42 87 -28 22 -46
25 -80 11z"/>
<path d="M11136 2694 c-7 -18 0 -34 15 -34 5 0 9 11 9 25 0 28 -15 34 -24 9z"/>
<path d="M11127 2633 c-12 -22 -57 -277 -57 -325 0 -25 15 -14 23 17 3 13 5 9
6 -12 1 -42 17 -43 25 -1 6 29 7 30 20 13 7 -10 11 -27 8 -38 -4 -14 -1 -18 9
-15 8 3 13 10 12 15 -1 5 14 9 34 9 35 0 63 22 63 51 0 40 -88 71 -118 41 -8
-8 -10 -2 -5 25 8 52 -14 48 -27 -5 -26 -101 -25 -69 3 100 19 114 21 154 4
125z"/>
<path d="M11192 2564 c-44 -30 -16 -94 42 -94 66 0 89 51 40 89 -32 25 -52 26
-82 5z"/>
<path d="M11140 2484 c0 -14 4 -23 10 -19 6 3 10 15 10 26 0 10 -4 19 -10 19
-5 0 -10 -12 -10 -26z"/>
<path d="M11330 2480 c0 -5 5 -10 10 -10 6 0 10 5 10 10 0 6 -4 10 -10 10 -5
0 -10 -4 -10 -10z"/>
<path d="M11367 2474 c-8 -8 1 -24 14 -24 5 0 9 7 9 15 0 15 -12 20 -23 9z"/>
<path d="M11309 2410 c-12 -40 -7 -62 10 -44 5 5 12 23 16 41 10 47 -12 50
-26 3z"/>
<path d="M11263 2425 c-3 -9 -3 -18 0 -21 9 -9 27 6 27 22 0 19 -19 18 -27 -1z"/>
<path d="M11346 2373 c-10 -31 -21 -84 -23 -117 -8 -93 12 -59 36 61 24 116
24 113 13 113 -5 0 -16 -26 -26 -57z"/>
<path d="M11292 2308 c-14 -14 -16 -58 -2 -58 11 0 24 43 18 60 -2 7 -7 7 -16
-2z"/>
<path d="M11222 2269 c2 -6 8 -10 13 -10 5 0 11 4 13 10 2 6 -4 11 -13 11 -9
0 -15 -5 -13 -11z"/>
<path d="M8480 4150 c0 -5 7 -10 15 -10 8 0 15 5 15 10 0 6 -7 10 -15 10 -8 0
-15 -4 -15 -10z"/>
<path d="M8484 4085 c10 -61 16 -73 28 -51 12 22 1 71 -19 88 -14 12 -15 8 -9
-37z"/>
<path d="M8525 4060 c0 -78 15 -89 29 -21 6 28 5 50 -2 66 -19 42 -27 28 -27
-45z"/>
<path d="M8358 4098 c-43 -36 -19 -88 41 -88 60 0 91 48 55 84 -19 19 -74 21
-96 4z"/>
<path d="M8271 4054 c-16 -36 -4 -44 19 -14 23 30 25 40 7 40 -8 0 -19 -12
-26 -26z"/>
<path d="M8300 3996 c0 -14 5 -26 10 -26 6 0 10 7 10 15 0 8 0 18 1 22 0 4 -4
9 -10 11 -6 2 -11 -8 -11 -22z"/>
<path d="M8255 3989 c-10 -15 3 -25 16 -12 7 7 7 13 1 17 -6 3 -14 1 -17 -5z"/>
<path d="M8510 3960 c0 -11 5 -20 10 -20 6 0 10 9 10 20 0 11 -4 20 -10 20 -5
0 -10 -9 -10 -20z"/>
<path d="M8495 3910 c-4 -6 -3 -16 3 -22 6 -6 12 -6 17 2 4 6 3 16 -3 22 -6 6
-12 6 -17 -2z"/>
<path d="M8298 3879 c-55 -31 -36 -99 27 -99 24 0 39 7 54 26 26 33 26 39 1
64 -22 22 -55 25 -82 9z"/>
<path d="M8231 3651 c-28 -28 -26 -57 4 -77 53 -35 133 22 101 71 -19 29 -79
32 -105 6z"/>
<path d="M8127 3634 c-4 -4 -7 -18 -7 -31 0 -28 23 -27 28 1 4 20 -11 40 -21
30z"/>
<path d="M8115 3503 c-3 -32 -13 -101 -21 -153 -21 -127 -30 -300 -16 -300 6
0 13 37 17 88 4 48 10 107 15 132 l8 45 1 -52 c0 -29 5 -53 9 -53 8 0 42 196
42 245 0 40 -16 21 -29 -35 -8 -39 -9 -33 -4 41 6 101 -12 135 -22 42z m12
-170 c-3 -10 -5 -4 -5 12 0 17 2 24 5 18 2 -7 2 -21 0 -30z"/>
<path d="M8154 3536 c-4 -10 -2 -22 4 -28 8 -8 13 -7 18 6 4 10 2 22 -4 28 -8
8 -13 7 -18 -6z"/>
<path d="M8202 3414 c-31 -22 -26 -63 10 -83 24 -14 30 -14 62 2 29 13 36 22
36 45 0 15 -5 33 -12 40 -17 17 -69 15 -96 -4z"/>
<path d="M8192 3234 c-49 -34 -6 -105 55 -89 16 4 34 11 40 17 16 13 17 60 1
76 -17 17 -69 15 -96 -4z"/>
<path d="M8110 3150 c0 -11 5 -20 10 -20 6 0 10 9 10 20 0 11 -4 20 -10 20 -5
0 -10 -9 -10 -20z"/>
<path d="M8176 2999 c-30 -24 -33 -49 -8 -72 29 -26 77 -22 101 9 26 33 26 39
1 64 -26 26 -60 25 -94 -1z"/>
<path d="M8070 2985 c0 -14 5 -25 10 -25 6 0 10 11 10 25 0 14 -4 25 -10 25
-5 0 -10 -11 -10 -25z"/>
<path d="M8078 2918 c-6 -17 1 -38 13 -38 5 0 9 11 9 25 0 26 -14 34 -22 13z"/>
<path d="M8210 2787 c-16 -8 -26 -23 -28 -42 -4 -35 18 -55 63 -55 59 0 87 63
43 94 -27 19 -45 20 -78 3z"/>
<path d="M8360 2685 c0 -14 5 -25 10 -25 6 0 10 11 10 25 0 14 -4 25 -10 25
-5 0 -10 -11 -10 -25z"/>
<path d="M8220 2550 c-24 -24 -24 -29 -4 -58 29 -42 124 -17 124 32 0 45 -83
63 -120 26z"/>
<path d="M8355 2500 c-7 -12 2 -30 16 -30 12 0 12 27 0 35 -5 3 -12 1 -16 -5z"/>
<path d="M8170 2480 c0 -5 5 -10 10 -10 6 0 10 5 10 10 0 6 -4 10 -10 10 -5 0
-10 -4 -10 -10z"/>
<path d="M8130 2465 c0 -8 5 -15 10 -15 6 0 10 7 10 15 0 8 -4 15 -10 15 -5 0
-10 -7 -10 -15z"/>
<path d="M8180 2439 c0 -31 13 -79 21 -79 14 0 10 55 -6 76 -12 16 -14 16 -15
3z"/>
<path d="M8230 2420 c0 -11 7 -20 15 -20 17 0 18 2 9 24 -9 23 -24 20 -24 -4z"/>
<path d="M8140 2420 c0 -34 40 -204 51 -214 23 -22 -11 177 -36 210 -11 15
-14 16 -15 4z"/>
<path d="M8256 2381 c-41 -45 10 -102 73 -80 34 12 51 51 34 78 -16 25 -85 26
-107 2z"/>
<path d="M8206 2311 c-10 -16 13 -66 25 -54 6 6 6 19 0 36 -11 29 -16 32 -25
18z"/>
<path d="M8340 2286 c0 -9 7 -16 16 -16 17 0 14 22 -4 28 -7 2 -12 -3 -12 -12z"/>
<path d="M8270 2270 c0 -5 5 -10 10 -10 6 0 10 5 10 10 0 6 -4 10 -10 10 -5 0
-10 -4 -10 -10z"/>
<path d="M7963 3812 c-76 -15 -97 -32 -40 -32 49 1 108 17 126 34 19 19 16 19
-86 -2z"/>
<path d="M7847 3793 c-12 -11 -8 -23 8 -23 8 0 15 7 15 15 0 16 -12 20 -23 8z"/>
<path d="M8744 3625 c-33 -26 -64 -89 -64 -130 0 -41 15 -28 29 25 13 50 65
110 96 110 7 0 17 5 20 10 13 21 -51 9 -81 -15z"/>
<path d="M8862 3628 c6 -18 28 -21 28 -4 0 9 -7 16 -16 16 -9 0 -14 -5 -12
-12z"/>
<path d="M8774 3575 c-30 -45 -11 -57 24 -15 30 36 31 40 13 40 -11 0 -28 -11
-37 -25z"/>
<path d="M8853 3583 c-7 -2 -13 -9 -13 -15 0 -12 41 -6 41 7 1 12 -11 15 -28
8z"/>
<path d="M8966 3551 c25 -23 323 -135 333 -126 9 10 -14 25 -62 41 -28 9 -93
34 -143 55 -84 36 -152 52 -128 30z"/>
<path d="M8800 3524 c-12 -32 -13 -74 -1 -74 7 0 31 73 31 94 0 17 -22 2 -30
-20z"/>
<path d="M8740 3496 c0 -8 4 -17 9 -20 10 -7 23 19 14 28 -11 11 -23 6 -23 -8z"/>
<path d="M8685 3440 c-8 -13 4 -32 16 -25 12 8 12 35 0 35 -6 0 -13 -4 -16
-10z"/>
<path d="M9335 3430 c-4 -6 5 -10 19 -10 14 0 26 5 26 10 0 6 -9 10 -19 10
-11 0 -23 -4 -26 -10z"/>
<path d="M9420 3430 c0 -5 11 -10 25 -10 14 0 25 5 25 10 0 6 -11 10 -25 10
-14 0 -25 -4 -25 -10z"/>
<path d="M8674 3376 c-4 -10 -2 -22 4 -28 8 -8 13 -7 18 6 4 10 2 22 -4 28 -8
8 -13 7 -18 -6z"/>
<path d="M8682 3211 c-8 -5 -12 -21 -10 -37 l3 -29 195 -7 c107 -5 259 -5 338
-2 126 5 144 8 153 25 6 13 6 25 -1 39 -10 19 -21 20 -338 20 -180 0 -333 -4
-340 -9z"/>
<path d="M8610 3195 c0 -8 5 -15 10 -15 6 0 10 7 10 15 0 8 -4 15 -10 15 -5 0
-10 -7 -10 -15z"/>
<path d="M9962 3104 c1 -9 9 -19 16 -22 9 -3 13 2 10 14 -1 9 -9 19 -16 22 -9
3 -13 -2 -10 -14z"/>
<path d="M8677 3073 c-13 -13 -7 -61 9 -67 9 -3 161 -6 339 -6 314 0 325 1
335 20 8 14 8 26 0 40 -10 19 -21 20 -344 20 -183 0 -336 -3 -339 -7z"/>
<path d="M8674 2926 c-3 -8 -4 -25 -2 -38 l3 -23 337 -3 c329 -2 337 -2 348
18 8 14 8 26 0 40 -10 19 -21 20 -346 20 -281 0 -336 -2 -340 -14z"/>
<path d="M8682 2791 c-8 -5 -12 -21 -10 -37 l3 -29 337 -3 c329 -2 337 -2 348
18 8 14 8 26 0 40 -10 19 -21 20 -338 20 -180 0 -333 -4 -340 -9z"/>
<path d="M10070 2736 c0 -15 18 -31 26 -23 7 7 -7 37 -17 37 -5 0 -9 -6 -9
-14z"/>
<path d="M8676 2638 c-24 -34 -5 -54 56 -61 85 -11 587 -8 607 3 25 13 33 37
21 61 -10 18 -25 19 -340 19 -325 0 -329 0 -344 -22z"/>
<path d="M8620 2625 c0 -8 5 -15 10 -15 6 0 10 7 10 15 0 8 -4 15 -10 15 -5 0
-10 -7 -10 -15z"/>
<path d="M8625 2550 c-7 -12 2 -30 16 -30 12 0 12 27 0 35 -5 3 -12 1 -16 -5z"/>
<path d="M9315 2459 c-4 -6 -5 -13 -2 -16 7 -7 27 6 27 18 0 12 -17 12 -25 -2z"/>
<path d="M9120 2420 c0 -5 6 -10 14 -10 8 0 18 5 21 10 3 6 -3 10 -14 10 -12
0 -21 -4 -21 -10z"/>
<path d="M9232 2396 c-12 -13 -45 -30 -72 -37 -77 -20 -61 -39 19 -23 33 7 91
53 91 73 0 17 -13 13 -38 -13z"/>
<path d="M9275 2376 c-44 -54 -88 -76 -153 -76 -67 0 -75 -16 -13 -25 79 -11
150 30 206 118 27 43 0 32 -40 -17z"/>
<path d="M8710 2393 c0 -25 23 -46 45 -41 13 2 10 9 -14 32 -29 27 -31 28 -31
9z"/>
<path d="M9140 2385 c0 -16 9 -19 34 -9 25 9 19 24 -9 24 -16 0 -25 -6 -25
-15z"/>
<path d="M8680 2376 c0 -28 44 -68 70 -64 25 4 25 4 -7 21 -17 9 -34 26 -38
37 -7 23 -25 27 -25 6z"/>
<path d="M8990 2290 c0 -5 9 -10 20 -10 11 0 20 5 20 10 0 6 -9 10 -20 10 -11
0 -20 -4 -20 -10z"/>
<path d="M8800 2280 c0 -5 7 -10 16 -10 8 0 12 5 9 10 -3 6 -10 10 -16 10 -5
0 -9 -4 -9 -10z"/>
<path d="M7926 3396 c-8 -14 -25 -27 -36 -31 -26 -8 -26 -25 0 -25 24 0 70 42
70 65 0 22 -16 18 -34 -9z"/>
<path d="M7786 3388 c-16 -27 -29 -88 -18 -88 4 0 14 17 21 38 8 20 20 45 29
55 14 15 13 17 -1 17 -9 0 -23 -10 -31 -22z"/>
<path d="M7880 3400 c0 -5 5 -10 10 -10 6 0 10 5 10 10 0 6 -4 10 -10 10 -5 0
-10 -4 -10 -10z"/>
<path d="M7704 3392 c-15 -10 -34 -47 -34 -66 0 -25 19 -19 26 9 3 13 12 29
20 36 25 20 14 39 -12 21z"/>
<path d="M7740 3380 c0 -11 5 -20 10 -20 6 0 10 9 10 20 0 11 -4 20 -10 20 -5
0 -10 -9 -10 -20z"/>
<path d="M7827 3373 c-12 -11 -8 -23 8 -23 8 0 15 7 15 15 0 16 -12 20 -23 8z"/>
<path d="M6630 3240 c0 -5 9 -10 20 -10 11 0 20 5 20 10 0 6 -9 10 -20 10 -11
0 -20 -4 -20 -10z"/>
<path d="M6332 3228 c5 -15 37 -18 41 -3 1 6 -9 12 -22 13 -16 3 -22 -1 -19
-10z"/>
<path d="M6400 3220 c0 -5 9 -10 20 -10 11 0 20 5 20 10 0 6 -9 10 -20 10 -11
0 -20 -4 -20 -10z"/>
<path d="M6359 2863 c-21 -54 5 -190 38 -200 9 -3 8 9 -3 42 -11 31 -15 69
-12 115 4 73 -5 89 -23 43z"/>
<path d="M6410 2880 c0 -5 5 -10 10 -10 6 0 10 5 10 10 0 6 -4 10 -10 10 -5 0
-10 -4 -10 -10z"/>
<path d="M6390 2800 c0 -46 10 -80 22 -80 7 0 8 18 3 48 -8 58 -25 80 -25 32z"/>
<path d="M6416 2702 c-3 -6 -1 -14 5 -17 15 -10 25 3 12 16 -7 7 -13 7 -17 1z"/>
<path d="M6890 2674 c0 -17 22 -14 28 4 2 7 -3 12 -12 12 -9 0 -16 -7 -16 -16z"/>
<path d="M6426 2641 c-4 -7 -5 -15 -2 -18 9 -9 19 4 14 18 -4 11 -6 11 -12 0z"/>
<path d="M7900 2860 c-19 -20 -44 -42 -55 -48 -11 -6 -16 -14 -12 -18 12 -12
76 26 83 50 4 12 11 24 17 27 5 4 8 11 6 16 -2 5 -20 -7 -39 -27z"/>
<path d="M7838 2858 c-38 -20 -50 -38 -25 -38 18 0 77 38 77 50 0 14 -9 12
-52 -12z"/>
<path d="M7760 2816 c0 -9 5 -16 10 -16 6 0 10 4 10 9 0 6 -4 13 -10 16 -5 3
-10 -1 -10 -9z"/>
<path d="M7790 2780 c0 -5 5 -10 10 -10 6 0 10 5 10 10 0 6 -4 10 -10 10 -5 0
-10 -4 -10 -10z"/>
<path d="M7755 2770 c3 -5 10 -10 16 -10 5 0 9 5 9 10 0 6 -7 10 -16 10 -8 0
-12 -4 -9 -10z"/>
<path d="M6415 2361 c-7 -12 12 -24 25 -16 11 7 4 25 -10 25 -5 0 -11 -4 -15
-9z"/>
<path d="M6364 2335 c-28 -43 -11 -91 55 -157 55 -55 81 -70 81 -48 0 6 -4 10
-9 10 -5 0 -33 28 -61 62 -50 59 -52 64 -48 110 3 26 4 48 2 48 -2 0 -11 -11
-20 -25z"/>
<path d="M6415 2310 c-7 -12 35 -89 60 -110 29 -24 27 -1 -4 42 -17 23 -31 50
-31 60 0 20 -15 24 -25 8z"/>
<path d="M6880 2275 c0 -8 5 -15 10 -15 6 0 10 7 10 15 0 8 -4 15 -10 15 -5 0
-10 -7 -10 -15z"/>
<path d="M6526 2123 c-8 -9 14 -33 30 -33 8 0 14 4 14 10 0 12 -35 31 -44 23z"/>
<path d="M9640 2240 c0 -5 16 -10 35 -10 19 0 35 5 35 10 0 6 -16 10 -35 10
-19 0 -35 -4 -35 -10z"/>
<path d="M9582 2222 c-12 -12 -24 -33 -27 -47 -3 -14 -7 -35 -10 -48 -5 -27
11 -60 19 -37 2 8 7 32 10 54 3 21 13 47 22 57 25 28 12 47 -14 21z"/>
<path d="M9552 2024 c4 -21 22 -23 26 -1 2 10 -3 17 -13 17 -10 0 -15 -6 -13
-16z"/>
<path d="M9702 1961 c2 -7 7 -12 11 -12 12 1 9 15 -3 20 -7 2 -11 -2 -8 -8z"/>
<path d="M8980 2053 c0 -15 36 -23 110 -23 45 0 61 3 53 11 -14 14 -163 25
-163 12z"/>
<path d="M9155 1990 c3 -5 15 -10 26 -10 10 0 19 5 19 10 0 6 -12 10 -26 10
-14 0 -23 -4 -19 -10z"/>
<path d="M9182 1959 c2 -6 8 -10 13 -10 5 0 11 4 13 10 2 6 -4 11 -13 11 -9 0
-15 -5 -13 -11z"/>
<path d="M6535 1971 c-7 -12 12 -24 25 -16 11 7 4 25 -10 25 -5 0 -11 -4 -15
-9z"/>
<path d="M6604 1945 c24 -18 39 -20 34 -2 -3 6 -15 13 -29 15 -23 2 -23 2 -5
-13z"/>
</g>
</svg>
